<svg xmlns="http://www.w3.org/2000/svg" width="1536" height="1024" viewBox="0 0 1536 1024" version="1.1">
<rect width="100%" height="100%" fill="none"/>
<path d="M 630.00 104.00 L 493.00 219.00 L 472.00 220.00 L 473.00 284.00 L 602.00 284.00 L 604.00 286.00 L 604.00 692.00 L 602.00 694.00 L 583.00 695.00 L 584.00 730.00 L 582.00 732.00 L 539.00 736.00 L 504.00 742.00 L 494.00 733.00 L 473.00 709.00 L 456.00 685.00 L 448.00 671.00 L 433.00 638.00 L 421.00 595.00 L 417.00 560.00 L 418.00 521.00 L 421.00 500.00 L 427.00 475.00 L 439.00 441.00 L 458.00 404.00 L 482.00 370.00 L 521.00 329.00 L 539.00 314.00 L 528.00 319.00 L 502.00 336.00 L 472.00 362.00 L 456.00 379.00 L 442.00 396.00 L 423.00 424.00 L 408.00 453.00 L 401.00 470.00 L 393.00 494.00 L 386.00 526.00 L 383.00 556.00 L 383.00 579.00 L 388.00 620.00 L 394.00 644.00 L 402.00 667.00 L 412.00 689.00 L 430.00 720.00 L 452.00 749.00 L 484.00 782.00 L 511.00 804.00 L 549.00 829.00 L 590.00 850.00 L 620.00 862.00 L 671.00 877.00 L 710.00 884.00 L 741.00 887.00 L 794.00 887.00 L 832.00 883.00 L 869.00 876.00 L 895.00 869.00 L 932.00 856.00 L 978.00 834.00 L 1000.00 821.00 L 1025.00 804.00 L 1045.00 788.00 L 1076.00 758.00 L 1088.00 744.00 L 1108.00 717.00 L 1121.00 695.00 L 1132.00 672.00 L 1141.00 647.00 L 1148.00 619.00 L 1152.00 589.00 L 1152.00 547.00 L 1149.00 523.00 L 1141.00 489.00 L 1131.00 461.00 L 1119.00 436.00 L 1106.00 414.00 L 1078.00 378.00 L 1043.00 345.00 L 1017.00 327.00 L 1004.00 321.00 L 1044.00 359.00 L 1063.00 382.00 L 1082.00 411.00 L 1097.00 441.00 L 1108.00 471.00 L 1115.00 501.00 L 1118.00 523.00 L 1119.00 556.00 L 1117.00 581.00 L 1113.00 605.00 L 1103.00 639.00 L 1089.00 670.00 L 1075.00 693.00 L 1055.00 719.00 L 1031.00 743.00 L 996.00 736.00 L 965.00 733.00 L 959.00 730.00 L 959.00 488.00 L 841.00 444.00 L 733.00 485.00 L 733.00 541.00 L 729.00 544.00 L 687.00 559.00 L 687.00 693.00 L 672.00 694.00 L 670.00 692.00 L 670.00 286.00 L 672.00 284.00 L 908.00 284.00 L 910.00 286.00 L 910.00 341.00 L 908.00 343.00 L 899.00 344.00 L 899.00 362.00 L 903.00 371.00 L 914.00 380.00 L 914.00 396.00 L 922.00 399.00 L 928.00 405.00 L 929.00 415.00 L 925.00 420.00 L 921.00 422.00 L 916.00 422.00 L 909.00 415.00 L 908.00 404.00 L 901.00 403.00 L 899.00 405.00 L 899.00 419.00 L 901.00 424.00 L 907.00 431.00 L 913.00 434.00 L 920.00 435.00 L 926.00 434.00 L 933.00 430.00 L 938.00 424.00 L 941.00 416.00 L 941.00 406.00 L 938.00 398.00 L 927.00 389.00 L 927.00 379.00 L 937.00 371.00 L 941.00 363.00 L 941.00 344.00 L 932.00 343.00 L 930.00 341.00 L 930.00 286.00 L 932.00 284.00 L 1056.00 283.00 L 995.00 219.00 L 934.00 219.00 Z M 532.00 765.00 L 1003.00 764.00 L 1004.00 766.00 L 980.00 783.00 L 956.00 797.00 L 922.00 813.00 L 892.00 824.00 L 859.00 833.00 L 826.00 839.00 L 799.00 842.00 L 756.00 843.00 L 717.00 840.00 L 686.00 835.00 L 650.00 826.00 L 626.00 818.00 L 597.00 806.00 L 572.00 793.00 L 542.00 774.00 Z M 762.00 666.00 L 764.00 668.00 L 763.00 707.00 L 735.00 712.00 L 734.00 675.00 L 737.00 672.00 Z M 812.00 656.00 L 814.00 658.00 L 814.00 696.00 L 810.00 699.00 L 786.00 703.00 L 784.00 701.00 L 784.00 664.00 L 787.00 661.00 Z M 623.00 649.00 L 643.00 667.00 L 624.00 687.00 L 622.00 686.00 Z M 650.00 603.00 L 652.00 604.00 L 651.00 650.00 L 649.00 650.00 L 626.00 628.00 L 626.00 626.00 Z M 762.00 594.00 L 764.00 634.00 L 762.00 636.00 L 736.00 642.00 L 734.00 640.00 L 734.00 603.00 L 739.00 600.00 Z M 914.00 592.00 L 934.00 596.00 L 939.00 599.00 L 939.00 636.00 L 937.00 638.00 L 918.00 634.00 L 913.00 631.00 Z M 870.00 580.00 L 891.00 585.00 L 894.00 587.00 L 893.00 628.00 L 870.00 623.00 L 868.00 621.00 L 868.00 582.00 Z M 812.00 580.00 L 814.00 582.00 L 814.00 621.00 L 809.00 624.00 L 786.00 630.00 L 784.00 628.00 L 784.00 589.00 L 786.00 587.00 Z M 623.00 562.00 L 646.00 583.00 L 624.00 606.00 L 622.00 605.00 Z M 915.00 519.00 L 929.00 522.00 L 939.00 527.00 L 939.00 562.00 L 937.00 564.00 L 918.00 559.00 L 914.00 556.00 Z M 650.00 518.00 L 652.00 519.00 L 651.00 564.00 L 649.00 564.00 L 626.00 542.00 Z M 870.00 504.00 L 893.00 511.00 L 895.00 513.00 L 893.00 552.00 L 873.00 547.00 L 868.00 544.00 L 868.00 506.00 Z M 623.00 476.00 L 647.00 497.00 L 624.00 521.00 L 622.00 520.00 Z M 650.00 433.00 L 652.00 434.00 L 651.00 478.00 L 626.00 456.00 Z M 623.00 392.00 L 647.00 411.00 L 647.00 413.00 L 625.00 433.00 L 622.00 432.00 Z M 650.00 345.00 L 652.00 347.00 L 651.00 389.00 L 648.00 390.00 L 625.00 368.00 Z M 623.00 306.00 L 645.00 326.00 L 624.00 347.00 L 622.00 346.00 Z M 626.00 285.00 L 649.00 284.00 L 651.00 286.00 L 651.00 306.00 L 650.00 307.00 Z M 936.00 265.00 L 959.00 243.00 L 981.00 266.00 L 937.00 267.00 Z M 835.00 265.00 L 860.00 242.00 L 862.00 242.00 L 884.00 266.00 L 836.00 267.00 Z M 736.00 265.00 L 759.00 242.00 L 761.00 242.00 L 784.00 266.00 L 737.00 267.00 Z M 975.00 237.00 L 989.00 236.00 L 1017.00 266.00 L 1002.00 267.00 L 987.00 252.00 Z M 877.00 237.00 L 941.00 236.00 L 942.00 238.00 L 912.00 267.00 L 906.00 267.00 Z M 778.00 239.00 L 779.00 236.00 L 844.00 237.00 L 815.00 267.00 L 807.00 267.00 Z M 670.00 265.00 L 671.00 236.00 L 743.00 237.00 L 714.00 267.00 L 672.00 267.00 Z M 623.00 236.00 L 651.00 237.00 L 651.00 265.00 L 649.00 267.00 L 623.00 267.00 L 621.00 265.00 L 621.00 244.00 Z M 537.00 238.00 L 539.00 236.00 L 602.00 236.00 L 604.00 238.00 L 604.00 265.00 L 602.00 267.00 L 539.00 267.00 L 537.00 265.00 Z M 635.00 163.00 L 638.00 165.00 L 649.00 215.00 L 647.00 219.00 L 624.00 219.00 L 622.00 217.00 L 625.00 208.00 L 632.00 171.00 Z M 623.00 132.00 L 607.00 214.00 L 604.00 219.00 L 518.00 218.00 L 529.00 207.00 L 621.00 130.00 Z M 646.00 127.00 L 648.00 125.00 L 887.00 216.00 L 888.00 218.00 L 667.00 219.00 L 664.00 213.00 L 660.00 188.00 Z" fill="#0f4a66" fill-rule="evenodd" stroke="none"/>
</svg>